# xmcd
#
# Track frame offsets:
#	150
#	36147
#	93165
#	130402
#	153735
#	194542
#	221610
#	249642
#	277780
#	301242
#
# Disc length: 4435 seconds
#
# Revision: 1
# Processed by: cddbd v1.5PL3 Copyright (c) Steve Scherf et al.
# Submitted via: CDex 1.50Beta5
#
DISCID=8911510a
DTITLE=Theo Parrish - Sound Signature Sounds
DYEAR=1900
DGENRE=Electronic
TTITLE0=Moonlite
TTITLE1=Ebonics
TTITLE2=Dan Ryan-Feat. Jerrald James
TTITLE3=Lake Shore Drive
TTITLE4=Took Me All The Way Back
TTITLE5=Music Pt.1
TTITLE6=Dusty Cabinets
TTITLE7=Overyohead
TTITLE8=African Roots
TTITLE9=Carpet People
EXTD=
EXTT0=
EXTT1=
EXTT2=
EXTT3=
EXTT4=
EXTT5=
EXTT6=
EXTT7=
EXTT8=
EXTT9=
PLAYORDER=
